<svg width="162" height="182" viewBox="0 0 162 182" fill="none" xmlns="http://www.w3.org/2000/svg">
<path d="M144.673 56.7962C134.053 46.1749 119.931 40.3255 104.909 40.3255H101.429C100.623 40.3255 99.9687 39.6713 99.9687 38.8663V22.2996C99.9687 18.0294 97.7822 14.1347 94.2271 11.8635V7.73435C94.2272 7.72381 94.2302 7.71405 94.2302 7.70351C94.2302 7.69297 94.2272 7.68321 94.2271 7.67267V7.43727H94.2033C94.06 3.86691 91.1316 1 87.5267 1C83.9218 1 80.9934 3.86691 80.8501 7.43727H80.8232V11.9072C77.3138 14.1858 75.1471 18.0834 75.1471 22.2996H75.1425V38.198C75.1425 44.6001 76.1176 50.9445 78.0422 57.0546L84.4177 77.2979C86.7163 84.5947 86.201 92.4311 82.9663 99.3642L66.0319 135.668C65.07 137.729 62.9792 139.061 60.7049 139.061C59.1348 139.061 57.6584 138.45 56.5482 137.34L51.4944 132.286C46.101 126.893 37.3253 126.893 31.9319 132.286L8.66171 155.556C5.68374 158.534 4.46685 162.834 5.36159 166.923L2.92946 169.282C1.51396 170.654 0.7621 172.572 0.865939 174.541C0.970558 176.51 1.92073 178.336 3.47364 179.552C4.71347 180.522 6.19767 181 7.67641 181C9.43309 181 11.1812 180.326 12.503 179.004L15.125 176.382C19.1341 177.128 23.1998 175.907 26.106 173L40.3609 158.746C40.9098 158.196 41.8724 158.194 42.4244 158.746L48.7157 165.038C58.8162 175.138 72.2443 180.7 86.5273 180.7C100.81 180.7 114.239 175.138 124.339 165.038L138.747 150.63C153.189 136.188 161.143 116.986 161.143 96.5597C161.143 81.5389 155.294 67.4175 144.673 56.7962ZM101.429 43.5235H104.909C119.077 43.5235 132.395 49.0402 142.412 59.0572C149.92 66.5652 154.899 75.9281 156.923 86.1126C146.325 81.6359 136.335 84.7167 132.078 86.4944C132.23 84.4967 132.31 82.4883 132.31 80.4716C132.31 70.3828 127.907 60.8428 120.231 54.2994L119.714 53.8575C113.827 48.8396 106.327 46.0765 98.593 46.0765C96.1852 46.0765 94.2271 44.1176 94.2271 41.7098V32.75C95.1709 32.1455 96.0238 31.4164 96.7707 30.5868V38.8663C96.7707 41.4342 98.86 43.5235 101.429 43.5235ZM125.831 102.549C125.223 101.999 124.547 101.516 123.777 101.15C121.542 100.086 118.874 100.089 116.642 101.151C115.732 101.585 114.926 102.153 114.25 102.838C114.053 103.038 113.816 103.068 113.693 103.068C113.569 103.068 113.332 103.038 113.135 102.839C112.459 102.151 111.653 101.583 110.743 101.15C108.499 100.081 105.824 100.086 103.58 101.161C102.708 101.581 101.931 102.123 101.276 102.774C100.927 103.12 100.392 103.134 100.058 102.798C98.4759 101.215 96.3726 100.344 94.1349 100.344C93.587 100.344 93.0478 100.399 92.5216 100.502C95.9066 91.5137 96.1726 81.6856 93.2059 72.4572L86.0511 50.1957C84.7043 46.0023 84.0211 41.6458 84.0211 37.2455V34.1908C85.1432 34.5251 86.3287 34.7112 87.5579 34.7112C88.7636 34.7112 89.9262 34.5299 91.0291 34.2078V41.7098C91.0291 45.8813 94.4223 49.2745 98.593 49.2745C105.567 49.2745 112.331 51.7666 117.639 56.2903L118.155 56.7322C125.118 62.6682 129.112 71.3212 129.112 80.4716C129.112 88.0118 127.994 95.4382 125.831 102.549ZM91.0291 30.8288C89.9567 31.267 88.786 31.5132 87.5579 31.5132C86.3051 31.5132 85.1109 31.2598 84.0211 30.8049V13.3903C85.0441 14.0231 86.238 14.4062 87.5267 14.4062C88.8141 14.4062 90.0067 14.0237 91.0291 13.3919V30.8288ZM96.7707 22.2996C96.7707 24.7555 95.7988 26.9845 94.2271 28.6378V15.9679C95.8279 17.6525 96.7707 19.8938 96.7707 22.2996ZM87.5267 4.19795C89.4493 4.19795 91.012 5.75388 91.0291 7.67257V7.73435C91.012 9.65226 89.4493 11.2083 87.5267 11.2083C85.5936 11.2083 84.0211 9.63586 84.0211 7.70351C84.0211 5.77037 85.5936 4.19795 87.5267 4.19795ZM80.8232 16.0405V28.566C79.2908 26.92 78.3451 24.7207 78.3451 22.2996C78.3451 19.9425 79.2636 17.7219 80.8232 16.0405ZM10.9228 157.817L34.193 134.547C38.3403 130.401 45.086 130.401 49.2333 134.547L54.2871 139.601C56.0008 141.315 58.2806 142.259 60.7049 142.259C64.2167 142.259 67.4451 140.203 68.93 137.02L85.8645 100.716C89.438 93.0565 90.0079 84.3988 87.4673 76.3375L81.0918 56.0943C79.2664 50.2949 78.3404 44.2738 78.3404 38.198V30.5814C79.0714 31.3943 79.9028 32.1123 80.8232 32.7099V37.2455C80.8232 41.9776 81.5579 46.6636 83.0061 51.174L90.1609 73.4363C93.2433 83.0239 92.5641 93.3149 88.2481 102.414L71.569 137.577C69.5601 141.812 65.2332 144.548 60.5471 144.548C57.5834 144.548 54.7251 143.472 52.4984 141.517L46.8879 136.59C43.8368 133.911 39.3272 134.011 36.3923 136.832L8.26099 164.112C8.30667 161.779 9.23156 159.509 10.9228 157.817ZM10.2419 176.743C8.94747 178.036 6.88551 178.161 5.44425 177.033C4.61978 176.388 4.11542 175.418 4.05998 174.371C4.00377 173.325 4.40351 172.307 5.15615 171.577L38.6136 139.133C40.3343 137.481 42.985 137.419 44.7784 138.993L50.3888 143.92C53.1987 146.387 56.8066 147.746 60.5471 147.746C66.4621 147.746 71.9226 144.293 74.4577 138.948L90.5694 104.981C91.536 104.058 92.7929 103.543 94.1349 103.543C95.5184 103.543 96.8192 104.081 97.7951 105.057C99.3613 106.633 101.933 106.625 103.527 105.045C103.93 104.646 104.414 104.309 104.965 104.044C106.344 103.382 107.989 103.381 109.367 104.037C109.942 104.31 110.443 104.662 110.859 105.084C111.611 105.846 112.617 106.266 113.691 106.266C114.765 106.266 115.774 105.847 116.527 105.085C116.941 104.664 117.443 104.312 118.02 104.038C119.391 103.383 121.029 103.384 122.403 104.037C122.977 104.311 123.48 104.664 123.896 105.084C124.156 105.348 124.459 105.556 124.778 105.735C122.767 111.424 120.08 116.887 116.73 122.007L102.695 143.455C95.0562 155.131 80.4352 160.334 67.1335 156.102L42.287 148.198C40.6466 147.678 38.8728 148.11 37.6595 149.326L10.2419 176.743ZM122.078 162.777C112.582 172.273 99.9562 177.502 86.5273 177.502C73.0984 177.502 60.473 172.273 50.9767 162.777L44.6855 156.485C42.9249 154.725 39.8565 154.726 38.0991 156.485L23.8449 170.739C22.2808 172.304 20.261 173.2 18.1351 173.372L39.9213 151.586C40.2875 151.219 40.8239 151.087 41.3181 151.246L66.1638 159.15C80.8224 163.809 96.9472 158.079 105.371 145.206L116.59 128.062C120.506 128.545 135.625 131.547 135.998 148.857L122.078 162.777ZM138.988 145.742C137.144 130.43 124.145 126.252 118.491 125.156L119.406 123.758C126.06 113.588 130.23 102.132 131.703 90.1856C133.425 89.3212 145.481 83.757 157.525 89.9549C157.794 92.1304 157.946 94.3328 157.946 96.5597C157.946 114.917 151.239 132.243 138.988 145.742Z" fill="white" stroke="#005A9C" stroke-width="1.3"/>
</svg>
