<svg width="174" height="182" viewBox="0 0 174 182" fill="none" xmlns="http://www.w3.org/2000/svg">
<path d="M147.029 57.4462C138.787 45.9457 125.374 39.0737 111.158 39.0737C106.6 39.0737 102.893 42.7812 102.893 47.3389V93.0813L96.186 86.3746V33.6895C97.6501 32.1781 98.76 30.3125 99.3504 28.2108C99.3976 28.2108 99.4684 28.2108 99.5157 28.2108C100.319 28.2108 101.098 28.0218 101.83 27.644C103.294 26.8647 104.286 25.4006 104.451 23.7475L105.278 15.5295C105.774 10.6412 104.026 5.87095 100.531 2.42315C98.9489 0.888177 96.5166 0.557567 94.6037 1.66747L87.8735 5.54034C87.3776 5.82372 86.74 5.82372 86.244 5.54034L79.4193 1.64386C77.5065 0.557567 75.0741 0.864562 73.4919 2.42315C69.9733 5.84733 68.2494 10.6412 68.7453 15.5295L69.5718 23.7475C69.7371 25.4006 70.7053 26.8647 72.1931 27.644C72.9724 28.0455 73.8225 28.2344 74.6727 28.2108C75.263 30.3125 76.3729 32.2017 77.8371 33.6895V86.3746L71.1304 93.0813V47.3389C71.1304 42.7812 67.4229 39.0737 62.8652 39.0737C48.6489 39.0737 35.2356 45.9457 26.9939 57.4462C15.1156 73.9295 1.04102 100.851 1.04102 135.541V177.694C1.04102 179.512 2.52876 181 4.34712 181H5.05557C6.28355 181 7.41707 180.457 8.19637 179.489C10.7232 176.348 20.4998 166.028 39.935 165.461C40.3128 165.461 40.7143 165.414 41.0921 165.39C41.6116 165.39 42.1075 165.461 42.6271 165.461V165.296C50.916 164.682 58.9687 162.391 66.5727 158.448C74.8144 154.15 79.9152 145.719 79.9152 136.438V108.667C79.9152 107.935 79.7263 107.227 79.4193 106.565L86.9997 98.985L103.389 115.374C103.577 115.563 103.79 115.681 104.026 115.752C104.782 117.617 105.915 119.341 107.379 120.758L117.487 130.629C124.004 137.005 127.759 145.908 127.759 155.023C127.759 157.598 128.68 160.077 130.381 162.014C132.175 164.092 134.702 165.367 137.512 165.627C154.728 167.232 163.512 176.608 165.803 179.441C166.582 180.386 167.716 180.953 168.944 180.953H169.652C171.471 180.953 172.958 179.465 172.958 177.647V135.494C172.958 100.803 158.884 73.8822 147.076 57.3989L147.029 57.4462ZM73.6808 24.7157C73.1849 24.456 72.8543 23.9837 72.8071 23.4169L71.9806 15.1989C71.6027 11.326 72.9724 7.524 75.759 4.78466C76.2785 4.26513 77.105 4.17067 77.7426 4.52489L84.5674 8.42137C86.0787 9.29513 87.9679 9.27151 89.4793 8.42137L96.2096 4.54851C96.8472 4.19428 97.6737 4.28874 98.1932 4.80827C100.98 7.54762 102.349 11.326 101.972 15.2225L101.145 23.4405C101.098 24.0073 100.767 24.4796 100.271 24.7394C99.7754 24.9991 99.2087 24.9991 98.7128 24.7394L89.3376 19.6385C88.6055 19.2371 87.779 19.0245 86.9761 19.0245C86.1732 19.0245 85.3467 19.2371 84.6146 19.6385L75.263 24.7394C74.7671 24.9991 74.2004 25.0227 73.7045 24.7394L73.6808 24.7157ZM77.7426 27.1009L86.1732 22.5195C86.6691 22.2598 87.2595 22.2598 87.7554 22.5195L96.186 27.1009C95.1233 31.2571 91.3921 34.2562 86.9761 34.2562C82.5601 34.2562 78.8053 31.2571 77.7426 27.1009ZM81.0723 61.6496V50.4325H92.8799V61.6496H81.0723ZM92.8799 64.9557V76.1729H81.0723V64.9557H92.8799ZM81.0723 47.1264V36.1454C82.8435 37.0428 84.8507 37.5623 86.9761 37.5623C89.1014 37.5623 91.1087 37.0428 92.8799 36.1218V47.1028H81.0723V47.1264ZM5.62233 177.434C5.48064 177.599 5.29172 177.694 5.07919 177.694H4.37073V135.541C4.37073 129.614 4.81942 123.946 5.5751 118.515C6.07102 130.251 8.62144 144.751 17.052 154.575C20.5706 158.684 24.8922 161.588 29.9222 163.383C15.5879 166.477 7.9366 174.6 5.64595 177.434H5.62233ZM76.5383 113.768C76.5383 114.051 76.5146 114.358 76.5146 114.642C76.5146 115.043 76.5619 115.445 76.5383 115.846C76.5383 116.248 76.5383 116.673 76.5383 117.074C76.5383 117.074 76.5855 117.074 76.6091 117.074V136.462C76.6091 144.515 72.1695 151.812 65.0377 155.519C57.4337 159.487 49.381 161.683 41.0685 162.084C32.0712 161.73 24.8213 158.518 19.5552 152.379C5.12642 135.588 9.28266 102.504 9.68412 99.6226C14.0293 85.1938 20.854 71.5916 29.6388 59.3354C37.2665 48.685 49.6644 42.3326 62.8179 42.3326C65.5573 42.3326 67.7771 44.5524 67.7771 47.2917V95.7734C67.7771 96.0567 67.8007 96.3401 67.8479 96.6235C63.7153 100.756 59.6063 104.865 55.4736 108.974C53.3011 111.147 51.1521 113.296 48.9795 115.468H38.3291L32.4962 109.635L30.1583 111.973L33.677 115.492H18.9176V118.798H25.2464L22.0584 121.986L24.3963 124.324L29.9222 118.798H40.1711L36.9831 121.986L39.321 124.324L44.8469 118.798H49.0031C49.8769 118.798 50.727 118.444 51.341 117.83C57.3392 111.832 63.3375 105.833 69.3357 99.8351L69.501 99.6698L74.8852 106.07C68.7689 112.186 62.6762 118.278 56.5599 124.395C55.946 125.009 55.5917 125.859 55.5917 126.733V128.811H48.9795V132.117H55.5917V136.557L41.4699 150.678L43.8078 153.016L48.3655 148.458V152.497H51.6716V145.152L57.3629 139.461L61.4719 143.57L63.8098 141.232L58.8978 136.32V126.733L68.8398 116.791C69.3357 115.988 70.0914 115.35 70.7526 114.736C71.154 114.358 71.5555 113.981 72.0042 113.626L76.6091 109.021C76.6091 109.021 76.6091 113.768 76.5619 113.768H76.5383ZM77.412 103.944L71.6736 97.143L78.9942 89.8224L84.7327 96.6235L77.412 103.944ZM81.0487 87.1539C81.0487 87.1539 81.0487 87.083 81.0487 87.0594V79.4554H92.8562V87.0594C92.8562 87.0594 92.8799 87.2011 92.9035 87.2719L87.0233 94.2384L81.0251 87.1303L81.0487 87.1539ZM89.314 96.6944L95.0524 89.8932L102.893 97.7334V110.179C102.893 110.179 102.893 110.249 102.893 110.273L89.314 96.6944ZM137.111 162.273C135.434 161.966 133.946 161.163 132.836 159.912C131.679 158.566 131.042 156.865 131.042 155.094C131.042 145.082 126.933 135.329 119.777 128.338L109.67 118.467C107.498 116.366 106.246 113.437 106.199 110.415L106.246 97.143C106.246 97.143 106.199 96.9777 106.199 96.9069V47.3626C106.199 44.6232 108.419 42.4034 111.158 42.4034C124.311 42.4034 136.709 48.7558 144.337 59.4062C150.902 68.5688 158.199 81.0848 163.253 96.3874C163.607 99.0322 167.952 135.683 137.111 162.321V162.273ZM169.605 177.694H168.897C168.684 177.694 168.472 177.599 168.33 177.434C166.016 174.553 157.538 165.485 141.409 162.887C160.868 144.869 165.779 123.049 166.748 109.258C168.519 117.405 169.605 126.19 169.605 135.541V177.694Z" fill="white" stroke="#005A9C" stroke-width="1.3" stroke-linejoin="round"/>
</svg>
