<svg width="138" height="184" viewBox="0 0 138 184" fill="none" xmlns="http://www.w3.org/2000/svg">
<path d="M135.651 77.4621H117.022C116.317 76.5453 115.575 75.6492 114.809 74.7666H119.915C120.814 74.7666 121.543 74.0379 121.543 73.1392V62.9747C121.543 62.0759 120.814 61.3472 119.915 61.3472H97.7842C96.8014 60.8332 95.793 60.3386 94.7567 59.8657C99.8661 55.2511 106.61 52.4136 114.02 52.4136V52.3945C118.568 52.2699 122.233 48.5519 122.233 43.9752C122.233 39.32 118.447 35.5335 113.792 35.5335C113.778 35.5335 113.765 35.5375 113.751 35.5376V35.5335C108.979 35.5335 104.239 36.1423 99.6376 37.2974C97.858 32.7526 94.9464 28.7859 91.1104 25.7274L91.1112 8.41506V8.29735H91.0993C91.0345 4.26416 87.7445 1 83.6962 1C80.4445 1 77.7057 3.11697 76.7077 6.03436L76.6778 6.02384L71.828 19.723C71.8216 19.7238 71.8153 19.7238 71.8089 19.7246V8.75905H71.7742C71.7806 8.64283 71.8089 8.53277 71.8089 8.41497C71.8089 4.94548 68.9863 2.12285 65.5168 2.12285C62.0465 2.12285 59.2239 4.94548 59.2239 8.41497C59.2239 8.53277 59.2522 8.64283 59.2587 8.75905H59.2239V23.7741C58.4082 24.2783 57.6315 24.8329 56.8782 25.413C56.908 25.0398 56.9353 24.6658 56.9353 24.2851C56.9353 16.5332 50.6281 10.226 42.8762 10.226C35.1235 10.226 28.8163 16.5332 28.8163 24.2851V38.2679H16.5897C15.6909 38.2679 14.9622 38.9966 14.9622 39.8954V53.2862C14.9622 54.1849 15.6909 54.9136 16.5897 54.9136H28.6796C28.3289 59.4747 27.2857 63.9851 25.6357 68.256H4.27085C3.37209 68.256 2.64339 68.9847 2.64339 69.8834V75.6511C2.64339 76.0826 2.81503 76.4966 3.12018 76.8017L9.14161 82.8232L1.54517 87.1418C0.766401 87.5837 0.492243 88.5722 0.930104 89.3526L5.73541 97.915C6.0334 98.4467 6.58648 98.7462 7.15626 98.7462C7.4177 98.7462 7.68232 98.6835 7.92787 98.5508L14.2267 95.148C14.0542 96.553 13.9546 97.9742 13.9546 99.4098C13.9546 100.613 14.0158 101.825 14.131 102.93C14.7982 115.872 20.5586 127.172 28.8878 136.869V166.619C28.8878 174.352 35.1791 180.643 42.9119 180.643C50.6448 180.643 56.9353 174.352 56.9353 166.619V159.878C80.6202 174.418 105.385 181.592 105.854 181.721C108.972 182.572 111.636 183 113.954 183C116.683 183 118.935 182.406 120.883 181.214C126.069 178.039 128.443 170.902 130.789 159.651C130.905 159.103 138.561 121.326 124.953 90.8807H135.651C136.55 90.8807 137.279 90.152 137.279 89.2533V79.0896C137.279 78.1908 136.55 77.4621 135.651 77.4621ZM92.3197 62.3379C107.999 69.1349 117.352 80.9745 122.795 94.0894C109.824 96.4425 103.803 88.8356 103.545 88.4983C103.239 88.0891 102.756 87.8475 102.244 87.8475C88.6547 87.8475 85.7694 80.6754 85.3205 79.2081C85.7673 72.774 88.3244 66.9245 92.3197 62.3379ZM118.288 64.6021V71.5117H111.759C109.232 69.0141 106.427 66.6925 103.298 64.6021H118.288ZM91.4148 58.4387L91.3705 58.5519C85.562 64.3569 81.9639 72.3733 81.9639 81.2145C81.9639 83.4038 80.183 85.1846 77.9946 85.1846H76.3591C71.8073 85.1846 67.7147 83.2219 64.8501 80.1117C64.5197 79.6301 64.169 79.1599 63.7789 78.7137L63.7288 78.7575C61.9228 76.295 60.8094 73.2946 60.7028 70.0392L70.6758 56.3909C70.8792 56.1128 70.9888 55.7759 70.9888 55.431V47.8897C70.9888 46.9925 71.7191 46.2622 72.6163 46.2622H85.702C85.9864 46.2622 86.2654 46.1875 86.5117 46.046C92.7718 42.4554 99.6854 40.1504 106.81 39.2373C105.89 40.5893 105.349 42.2197 105.349 43.9752C105.349 46.2324 106.252 48.2747 107.7 49.791C101.442 51.0477 95.8388 54.1313 91.4698 58.4616C91.4511 58.4543 91.4335 58.4461 91.4148 58.4387ZM118.978 43.9752C118.978 46.8359 116.652 49.1627 113.792 49.1627C110.931 49.1627 108.604 46.8359 108.604 43.9752C108.604 41.1152 110.931 38.7884 113.792 38.7884C116.652 38.7884 118.978 41.1152 118.978 43.9752ZM83.6962 4.25493C85.9904 4.25493 87.8563 6.12068 87.8563 8.41487C87.8563 10.709 85.9904 12.5758 83.6962 12.5758C81.4021 12.5758 79.5354 10.7091 79.5354 8.41497C79.5354 6.12079 81.4021 4.25493 83.6962 4.25493ZM65.5168 5.37778C67.1912 5.37778 68.554 6.74062 68.554 8.41497C68.554 10.0901 67.1912 11.4529 65.5168 11.4529C63.8417 11.4529 62.4788 10.0901 62.4788 8.41497C62.4788 6.74062 63.8417 5.37778 65.5168 5.37778ZM61.704 26.0842C62.1856 25.7878 62.4788 25.2633 62.4788 24.6983V13.8917C63.3836 14.3958 64.4096 14.7079 65.5168 14.7079C66.6234 14.7079 67.6487 14.396 68.553 13.8924L68.5516 21.5324C68.5516 21.9997 68.825 22.4343 69.1762 22.7435C69.4726 23.0049 69.9041 23.1408 70.311 23.1408C70.3849 23.1408 70.458 23.136 70.5303 23.1273C71.2511 23.0351 72.091 22.9421 72.8889 22.9382C72.9588 22.9437 73.0264 22.9437 73.0915 22.9382C73.7431 22.8976 74.3073 22.4725 74.5259 21.8566L77.7369 12.7865C79.088 14.6227 81.2466 15.8307 83.6962 15.8307C85.2373 15.8307 86.6688 15.3564 87.856 14.5485L87.8555 26.5252C87.8555 27.037 88.0963 27.5194 88.5055 27.8269C92.0902 30.5195 94.8247 34.0781 96.4962 38.1886C92.6089 39.4 88.8391 40.9971 85.272 43.0073H72.6163C69.924 43.0073 67.7339 45.1973 67.7339 47.8897V54.8993L58.9263 66.9527C52.0401 61.6923 48.3552 53.0882 49.4417 44.3089C50.3762 36.7628 54.9367 29.9645 61.704 26.0842ZM42.8762 13.4809C48.8337 13.4809 53.6804 18.3275 53.6804 24.2851C53.6804 30.2427 48.8337 35.0901 42.8762 35.0901C36.9186 35.0901 32.0712 30.2427 32.0712 24.2851C32.0712 18.3275 36.9186 13.4809 42.8762 13.4809ZM31.5785 52.1586C31.2718 51.8391 30.8474 51.6587 30.4048 51.6587H18.2171V41.5228H30.4437C31.3425 41.5228 32.0712 40.7941 32.0712 39.8954V33.2677C34.6524 36.3671 38.5368 38.345 42.8762 38.345C44.6423 38.345 46.3266 38.0036 47.8852 37.4063C47.0731 39.4882 46.4901 41.6641 46.2122 43.9084C45.2194 51.9237 47.7479 59.8118 52.8528 65.6919C40.9987 63.2156 32.3023 68.4977 31.871 68.7677C31.8368 68.7884 31.8042 68.8114 31.7716 68.8353C30.3945 69.6185 29.083 70.4874 27.8419 71.4326C30.3328 65.7305 31.7821 59.5625 32.0307 53.3513C32.049 52.9087 31.8853 52.478 31.5785 52.1586ZM5.89831 74.9772V71.5109H24.2512C23.8909 72.2676 23.5112 73.0147 23.1106 73.7502L22.2174 75.3894L12.076 81.1549L5.89831 74.9772ZM7.79039 94.9255L4.5609 89.1714L19.2621 80.8132L19.0785 81.1501L19.0991 81.1613C17.2415 84.2127 15.8524 87.5402 14.99 91.0364L7.79039 94.9255ZM17.2095 99.4098C17.2095 90.6072 20.8759 82.3083 27.0987 76.3577L27.3144 76.2351L27.2859 76.185C29.1523 74.4284 31.233 72.8711 33.523 71.584C33.5906 71.5467 33.6558 71.5022 33.7177 71.4537C34.9736 70.7139 44.9116 65.3106 57.4903 70.5299C57.7257 74.9542 59.4793 78.9724 62.2502 82.0811C63.6678 84.2094 64.3504 86.7331 64.1667 89.3423C63.887 93.3211 61.3425 96.9821 57.5249 98.8964C55.6074 99.8596 53.6994 100.246 51.6834 100.077C50.6956 99.9875 49.754 100.347 49.0642 101.041C48.3935 101.716 48.0558 102.639 48.1376 103.574C48.1646 103.885 48.1782 104.199 48.1782 104.517C48.1782 110.922 42.9676 116.133 36.5626 116.133C30.844 116.133 25.9896 119.88 24.3113 125.099C20.0992 117.901 17.7747 110.421 17.3748 102.681C17.2651 101.604 17.2095 100.503 17.2095 99.4098ZM53.6804 166.619C53.6804 172.557 48.8496 177.388 42.9119 177.388C36.9735 177.388 32.1427 172.557 32.1427 166.619V140.448C38.4842 147.043 45.9587 152.832 53.6804 157.826V166.619ZM127.604 158.982C125.493 169.103 123.348 175.889 119.184 178.437C116.448 180.115 112.484 180.158 106.712 178.58C106.485 178.519 83.4316 172.013 60.3158 158.192C45.1583 149.128 33.9869 139.378 26.8262 129.02L26.9337 129.016C26.9337 123.707 31.2535 119.388 36.5626 119.388C44.7619 119.388 51.4331 112.716 51.4331 104.517C51.4331 104.104 51.4148 103.695 51.414 103.32C54.0022 103.535 56.5507 103.026 58.9839 101.806C63.8242 99.3788 67.0537 94.6903 67.4137 89.5711C67.4967 88.3899 67.4264 87.2254 67.2413 86.0876C69.9478 87.5831 73.0544 88.4395 76.3591 88.4395H77.9946C79.2705 88.4395 80.4525 88.0786 81.4939 87.4958C81.4824 88.1077 81.4853 88.7647 81.5097 89.4726C81.5097 89.4734 81.5093 89.4742 81.5093 89.475V94.7308C81.5093 101.033 78.9124 107.163 74.3836 111.547L76.6484 113.885C80.0588 110.583 82.4789 106.403 83.7465 101.88C84.6332 104.679 85.8484 107.707 87.4899 110.92V126.785H90.7449V116.604C92.948 120.066 95.6494 123.687 98.9728 127.42C101.664 130.444 103.871 133.612 105.693 136.779C106.1 138.519 108.444 150.118 100.351 156.231L102.314 158.828C107.487 154.92 109.164 149.393 109.522 144.716C114.138 156.314 114.154 166.14 114.153 166.286L117.408 166.313C117.416 165.38 117.425 143.253 101.404 125.255C100.733 124.501 100.088 123.751 99.4691 123.007C101.882 123.74 104.977 124.295 108.881 124.295C118.614 124.295 123.753 132.998 123.802 133.083L126.628 131.468C126.385 131.042 120.535 121.04 108.881 121.04C99.9056 121.04 95.8109 117.859 95.1 117.24C89.2525 108.757 86.6938 101.323 85.608 95.9933C88.4062 98.989 92.9082 102.296 99.8906 103.808L100.579 100.626C89.4251 98.2119 85.4994 90.7569 84.7868 89.1898C84.7272 87.3253 84.8243 85.8513 84.9398 84.8199C87.5527 87.7794 92.4297 90.9283 101.484 91.0953C103.127 92.9055 108.463 97.8229 117.939 97.8221C119.798 97.8221 121.825 97.6198 124.006 97.1804C134.367 125.593 127.71 158.477 127.604 158.982ZM134.024 87.6258H123.402C122.199 85.2585 120.852 82.9498 119.354 80.717H134.024V87.6258Z" fill="white" stroke="#005A9C" stroke-width="1.3"/>
</svg>
