<svg width="160" height="180" viewBox="0 0 160 180" fill="none" xmlns="http://www.w3.org/2000/svg">
<g clip-path="url(#clip0_4275_26513)">
<path d="M101.628 -0.00158691C102.751 0.28485 103.877 0.543114 104.99 0.862421C111.179 2.62331 115.8 6.50664 119.608 11.5498C120.073 12.165 120.932 12.7707 121.669 12.8552C133.075 14.1653 138.259 24.3362 136.954 33.7088C136.771 35.033 136.423 36.3384 136.123 37.7659C136.329 37.8551 136.564 37.996 136.822 38.0664C148.994 41.2736 155.558 54.661 151.614 66.6491C151.168 68.0108 151.454 68.6166 152.567 69.4712C156.981 72.8521 158.841 77.6934 159.578 82.9854C160.592 90.2825 159.446 97.218 155.493 103.595C160.23 111.399 159.982 119.466 156.507 127.618C154.614 132.055 151.717 135.634 147.176 137.686C146.791 137.859 146.519 138.62 146.463 139.136C146.101 142.494 145.951 145.875 145.453 149.213C145.153 151.223 143.659 152.167 142.152 151.791C140.509 151.383 139.804 149.908 140.382 147.847C141.401 144.227 141.575 140.602 140.767 136.911C140.307 134.812 141.218 133.844 143.199 133.192C144.979 132.609 146.881 131.825 148.214 130.581C153.267 125.881 155.23 115.902 152.619 109.502C152.422 109.023 152.168 108.568 151.853 107.929C148.256 111.31 144.091 113.305 139.382 114.047C137.306 114.376 135.193 114.517 133.094 114.569C131.357 114.611 130.183 113.423 130.187 111.93C130.197 110.427 131.347 109.342 133.118 109.328C137.766 109.291 142.255 108.619 146.125 105.821C153.065 100.796 155 93.5789 154.474 85.5305C154.3 82.9056 153.464 80.2572 152.534 77.7638C151.59 75.2375 149.707 73.378 147.092 72.3403C144.81 71.4387 144.401 70.1802 145.495 67.8887C147.956 62.747 148.28 57.5066 145.913 52.2803C143.434 46.8051 139.194 43.551 133.15 42.795C132.803 42.7527 132.451 42.7057 132.103 42.6588C129.525 42.3113 128.605 40.5504 129.906 38.2824C132.038 34.5634 132.437 30.6566 131.22 26.5948C129.859 22.0447 126.83 19.1897 122.139 18.3069C117.054 17.349 112.56 18.3069 109.376 22.8101C108.7 23.7633 108.141 24.7964 107.512 25.7825C106.582 27.2334 105.047 27.6842 103.751 26.8953C102.52 26.1487 102.149 24.679 102.934 23.1951C105.389 18.537 108.738 14.8368 114.025 13.3154C109.254 6.64282 99.1818 2.13026 89.18 7.95292C88.4709 8.36614 87.8041 8.8404 87.1279 9.30528C84.0194 11.4418 82.3947 14.0104 82.5449 18.1707C82.9065 28.351 82.6623 38.5548 82.6623 48.7491C82.6623 49.3642 82.6623 49.9794 82.6623 50.9044C83.2352 50.4536 83.5451 50.2189 83.841 49.9747C89.302 45.4152 95.5473 43.7998 102.544 44.9832C104.549 45.3212 105.512 46.4905 105.206 48.1715C104.92 49.7211 103.619 50.5053 101.694 50.1954C93.7207 48.9088 87.7759 52.0455 83.4136 58.5772C82.9629 59.2534 82.6905 60.1925 82.6905 61.0143C82.6529 92.7102 82.6482 124.406 82.667 156.102C82.6717 164.197 87.513 170.419 95.9464 173.335C105.929 176.791 116.49 173.739 122.012 165.794C122.477 165.122 122.768 164.291 123.336 163.737C124.008 163.08 124.839 162.296 125.689 162.169C128.887 161.699 131.573 160.323 133.977 158.248C135.639 156.816 137.189 156.764 138.273 158.051C139.353 159.333 139.039 160.812 137.362 162.282C134.77 164.559 131.831 166.174 128.459 167.024C127.854 167.174 127.168 167.625 126.839 168.142C115.955 185.187 89.5697 182.806 80.4413 167.649C80.3521 167.503 80.2065 167.395 80.1595 167.339C78.5489 169.17 77.112 171.175 75.323 172.791C63.4475 183.506 42.3028 182.558 33.2167 168.081C32.9396 167.635 32.4043 167.203 31.9019 167.066C22.3274 164.446 17.0024 157.731 14.5184 148.58C13.6168 145.25 13.6638 141.663 13.2365 137.826C8.02897 135.765 4.80772 131.252 2.79327 125.73C0.797597 120.25 0.332724 114.653 2.09361 109.018C2.57727 107.473 3.47884 106.06 4.06111 104.539C4.26772 103.999 4.30998 103.182 4.03763 102.717C2.16874 99.5377 1.08873 96.1099 0.553421 92.4848C0.276375 90.6018 1.03238 89.2588 2.56787 88.9677C4.12684 88.6766 5.36181 89.6251 5.69521 91.4987C6.44182 95.7107 7.7707 99.5847 10.7149 102.89C14.6264 107.281 19.5851 108.985 25.2246 109.286C25.8116 109.319 26.3985 109.286 26.9808 109.314C28.7464 109.389 29.8874 110.436 29.878 111.944C29.8686 113.456 28.7229 114.569 26.962 114.573C20.0077 114.606 13.6215 112.944 8.01018 107.718C7.42322 109.845 6.64843 111.676 6.45121 113.564C5.85016 119.241 7.15087 124.509 10.5599 129.153C12.1612 131.337 14.2085 132.891 17.0353 133.286C19.0498 133.567 19.7353 134.873 19.2611 137.254C18.5145 141.01 18.6084 144.757 19.8715 148.354C22.379 155.501 26.6098 160.887 34.677 162.211C35.4988 162.347 36.4614 163.197 36.884 163.972C43.8853 176.834 61.7853 177.679 71.6462 169.025C75.4169 165.714 77.3844 161.554 77.3844 156.506C77.3844 124.636 77.3844 92.7618 77.3656 60.8922C77.3656 60.2254 77.2106 59.4788 76.8866 58.9059C73.1395 52.3272 66.0912 48.9745 58.6063 50.1672C56.4604 50.51 55.0704 49.7258 54.845 48.0494C54.6196 46.3872 55.5917 45.3119 57.6625 44.9691C64.6637 43.8092 70.8996 45.4715 76.3325 50.0592C76.5861 50.2705 76.8444 50.4771 77.2952 50.8387C77.3327 50.1015 77.3844 49.6037 77.3844 49.106C77.3844 37.7987 77.4125 26.4915 77.3421 15.1843C77.3374 14.2498 76.9007 13.1135 76.2809 12.4138C67.622 2.63739 53.5866 2.97548 46.0641 13.2121C46.4303 13.3764 46.7591 13.5549 47.1112 13.677C52.037 15.3956 55.0469 19.1052 57.3197 23.5473C58.0146 24.9091 57.5263 26.083 56.3054 26.8906C55.1362 27.6607 53.6335 27.2898 52.7695 26.036C52.0041 24.9278 51.3749 23.7304 50.586 22.641C47.2333 18.0346 42.5564 17.2645 37.4099 18.4196C32.3574 19.556 29.5399 23.0073 28.5069 27.9707C27.7509 31.6098 28.3191 35.0518 30.1926 38.2965C31.498 40.5598 30.5777 42.4757 27.9575 42.6165C15.9741 43.2598 9.07141 56.4031 14.4433 67.5788C15.7393 70.2742 15.3589 71.2696 12.6354 72.4624C9.87907 73.6645 8.26845 75.8996 7.10861 78.548C6.85035 79.1349 6.6813 79.7688 6.39486 80.337C5.72338 81.6706 4.62459 82.1824 3.18771 81.7316C1.83535 81.309 1.08873 79.9097 1.53482 78.4869C2.68057 74.8337 4.53067 71.5843 7.70496 69.3256C8.79436 68.5461 8.8648 67.9216 8.48914 66.7477C4.69033 54.8253 10.7525 42.1798 21.994 38.4514C22.6514 38.2354 23.3088 38.0288 24.0554 37.7847C22.703 33.3989 22.4588 29.0695 23.9051 24.7588C26.1872 17.9547 30.8923 13.9775 38.0157 12.9773C39.2131 12.8083 39.9926 12.3481 40.7157 11.3667C45.0357 5.50177 50.5485 1.40712 57.9442 0.261372C58.0992 0.237893 58.2353 0.0876313 58.3762 -0.00158691C60.2498 -0.00158691 62.1281 -0.00158691 64.0016 -0.00158691C64.7342 0.172154 65.4667 0.359981 66.2039 0.519635C71.6368 1.69825 76.1353 4.51097 79.9576 8.48353C81.4415 7.23917 82.7938 5.93377 84.3152 4.87254C85.8413 3.81132 87.4613 2.80174 89.1753 2.11148C91.3775 1.22868 93.716 0.68868 95.9981 -0.00158691C97.8717 -0.00158691 99.75 -0.00158691 101.624 -0.00158691L101.628 -0.00158691Z" fill="white" stroke="#005A9C" stroke-width="2.5"/>
<path d="M114.092 81.0067C110.382 81.7627 106.851 81.9411 103.339 80.8752C99.643 79.7529 96.5955 77.6774 94.2007 74.6581C93.1677 73.3574 93.2475 71.836 94.3087 70.8734C95.4169 69.8732 97.1308 69.9389 98.1827 71.2819C104.55 79.443 116.81 77.128 122.61 68.9904C124.46 66.3984 125.408 63.487 125.521 60.3034C125.596 58.2326 126.592 57.1197 128.263 57.1807C129.907 57.2371 130.883 58.4392 130.775 60.5053C130.376 68.1264 126.859 73.9772 120.492 78.0954C119.346 78.8326 119.06 79.4524 119.506 80.7531C120.9 84.8102 124.723 87.9 129.01 88.2615C131.034 88.4306 132.212 89.52 132.1 91.1024C131.982 92.7224 130.747 93.5958 128.676 93.5254C122.535 93.3141 116.524 88.4822 114.378 82.0256C114.289 81.758 114.223 81.4762 114.092 81.0161V81.0067Z" fill="white" stroke="#005A9C" stroke-width="2.5"/>
<path d="M45.9975 81.0125C44.5419 86.2623 41.4615 90.0141 36.6249 92.1366C34.9955 92.8503 33.1736 93.2542 31.3986 93.4796C29.3043 93.7472 28.1116 92.7564 28.013 91.1035C27.9144 89.4413 28.9991 88.4974 31.0652 88.2532C35.6717 87.7038 38.7662 85.187 40.4942 80.8951C41.0154 79.5991 40.7947 78.8665 39.5362 78.0589C33.4318 74.1615 30.004 68.5501 29.3137 61.3141C29.2527 60.6754 29.1963 60.0086 29.3231 59.3935C29.6189 57.9519 30.5346 57.1208 32.056 57.21C33.4694 57.2898 34.3052 58.1022 34.4837 59.525C34.6152 60.5721 34.648 61.6287 34.8077 62.6664C36.1976 71.5272 46.1572 78.1575 54.755 75.9693C57.455 75.279 59.6573 73.814 61.4792 71.7291C62.902 70.0997 64.4892 69.7851 65.7147 70.8416C66.9544 71.9075 66.8887 73.5463 65.4612 75.1757C60.8782 80.402 55.0696 82.3132 48.2562 81.4304C47.5659 81.3412 46.885 81.1862 45.9975 81.0219V81.0125Z" fill="white" stroke="#005A9C" stroke-width="2.5"/>
<path d="M60.0734 151.876C60.0734 152.346 60.1485 152.825 60.0593 153.275C59.787 154.726 58.876 155.619 57.3969 155.576C55.9412 155.534 55.0162 154.675 54.8565 153.167C54.6781 151.482 54.6499 149.768 54.3494 148.106C53.3257 142.527 50.1702 138.414 45.0566 136.122C41.887 134.704 38.4216 133.948 35.0829 132.91C34.6415 132.774 34.1579 132.765 33.7118 132.624C32.2843 132.178 31.5377 131.168 31.7866 129.708C32.0307 128.271 33.0215 127.355 34.5288 127.562C49.2311 129.562 59.4818 136.629 60.0734 151.881V151.876Z" fill="white" stroke="#005A9C" stroke-width="2.5"/>
<path d="M100.099 150.934C100.893 139.237 107.58 131.654 119.76 128.681C121.46 128.268 123.179 127.883 124.907 127.615C126.818 127.319 128.104 128.193 128.32 129.756C128.532 131.301 127.489 132.33 125.644 132.851C122.005 133.875 118.239 134.687 114.83 136.251C108.993 138.932 105.964 143.834 105.434 150.248C105.359 151.183 105.312 152.117 105.213 153.047C105.044 154.606 104.011 155.611 102.616 155.611C101.175 155.611 100.052 154.461 99.9961 152.864C99.9726 152.225 100.062 151.577 100.099 150.934Z" fill="white" stroke="#005A9C" stroke-width="2.5"/>
<path d="M50.6685 117.48C48.3066 117.593 46.9777 116.55 47.1186 114.705C47.236 113.174 48.2315 112.413 50.3821 112.216C55.8432 111.714 60.6046 107.783 62.0603 102.501C62.3514 101.439 62.4641 100.317 62.5674 99.2184C62.7458 97.3073 63.7366 96.2273 65.3566 96.3024C66.8874 96.3775 67.8313 97.5139 67.8548 99.3123C67.9768 108.384 59.7782 117.048 50.6732 117.475L50.6685 117.48Z" fill="white" stroke="#005A9C" stroke-width="2.5"/>
<path d="M109.385 117.48C100.304 117.043 92.0771 108.337 92.2086 99.3074C92.2368 97.5184 93.1947 96.3726 94.7302 96.3022C96.2891 96.2318 97.2846 97.2319 97.4771 99.0539C98.1768 105.806 101.694 110.258 107.629 111.873C108.301 112.056 109.005 112.141 109.7 112.211C111.973 112.441 113.029 113.357 112.94 115.071C112.851 116.79 111.672 117.588 109.385 117.475V117.48Z" fill="white" stroke="#005A9C" stroke-width="2.5"/>
<path d="M3.69072 79.8535C3.69072 79.8535 1.38513 87.423 3.69072 93.8373" stroke="white" stroke-width="2" stroke-miterlimit="10"/>
<path d="M135.123 160.875C135.123 160.875 141.682 153.415 142.998 148.5" stroke="white" stroke-width="2" stroke-miterlimit="10" stroke-linecap="round" stroke-linejoin="round"/>
</g>
<defs>
<clipPath id="clip0_4275_26513">
<rect width="159.841" height="180" fill="white" transform="translate(0.0791016)"/>
</clipPath>
</defs>
</svg>
