<svg width="192" height="182" viewBox="0 0 192 182" fill="none" xmlns="http://www.w3.org/2000/svg">
<path d="M187.438 53.9605C174.762 23.5369 154.989 19.3656 140.641 21.2324C140.592 21.2385 140.544 21.2462 140.496 21.2569C130.008 22.2592 121.823 31.2415 121.823 41.803C121.823 49.3121 125.785 55.998 132.039 59.6295C129.888 60.6483 127.472 62.4735 125.457 65.7095H115.277V11.2555C115.277 5.60134 110.677 1 105.023 1C101.36 1 98.1491 2.93667 96.3348 5.83316C94.5204 2.93667 91.3093 1 87.647 1C81.9921 1 77.3916 5.60134 77.3916 11.2555V87.44H65.0859C63.5065 85.1054 61.9048 83.5187 60.6458 82.5131C66.5022 78.7999 70.182 72.3388 70.182 65.1081C70.182 54.5466 61.9984 45.5643 51.5096 44.5635C51.4614 44.5513 51.4124 44.5436 51.3627 44.5375C37.0155 42.6752 17.2421 46.842 4.52761 77.3666C-7.99179 114.347 17.5703 133.437 17.7501 133.564C21.4984 136.676 26.0929 138.321 30.913 138.321C31.8097 138.321 32.7141 138.264 33.6222 138.15C42.8716 136.976 50.3666 129.392 51.4431 120.115C51.8645 116.482 51.3524 112.926 49.9639 109.661C55.9508 110.674 60.5294 115.883 60.5294 122.154V163.237C60.5294 166.229 62.9632 168.662 65.9555 168.662C68.9471 168.662 71.3809 166.229 71.3809 163.237V112.719C71.3809 109.327 71.1452 106.122 70.7028 103.137H77.3916V170.745C77.3916 176.399 81.9921 181 87.647 181C91.3093 181 94.5204 179.063 96.3348 176.167C98.1491 179.063 101.36 181 105.023 181C110.677 181 115.277 176.399 115.277 170.745V81.4064H121.351C121.311 82.298 121.283 83.2044 121.283 84.1332V163.237C121.283 166.229 123.717 168.662 126.709 168.662C129.7 168.662 132.134 166.229 132.134 163.237V96.7697C132.134 91.7674 136.204 87.6986 141.206 87.6986L141.535 87.6983C140.54 90.5869 140.196 93.6684 140.561 96.8094C141.638 106.087 149.133 113.671 158.382 114.844C159.292 114.959 160.197 115.016 161.095 115.016C165.91 115.016 170.493 113.379 174.173 110.321C174.441 110.127 180.787 105.454 185.623 96.1499C190.072 87.5915 194.004 73.3437 187.438 53.9605ZM136.35 61.5206C136.383 61.531 136.415 61.5447 136.448 61.555C137.52 61.8824 138.194 62.9077 138.053 63.9941C137.979 64.5569 137.968 65.1348 137.942 65.7095H129.292C131.87 62.5858 134.813 61.7382 136.35 61.5206ZM97.9017 65.7095V18.6188C99.7481 20.4052 102.257 21.5109 105.023 21.5109C107.788 21.5109 110.297 20.4052 112.143 18.6188V65.7095H97.9017ZM105.023 4.13387C108.949 4.13387 112.143 7.32894 112.143 11.2555C112.143 15.182 108.949 18.3771 105.023 18.3771C101.096 18.3771 97.9017 15.182 97.9017 11.2555C97.9017 7.32894 101.096 4.13387 105.023 4.13387ZM87.647 4.13387C91.5735 4.13387 94.7678 7.32894 94.7678 11.2555C94.7678 15.182 91.5735 18.3771 87.647 18.3771C83.7205 18.3771 80.5254 15.182 80.5254 11.2555C80.5254 7.32894 83.7205 4.13387 87.647 4.13387ZM80.5254 18.6186C82.3719 20.4051 84.8811 21.5109 87.647 21.5109C90.4126 21.5109 92.9215 20.4052 94.7678 18.6188V66.7852V67.2764C94.7678 68.1425 95.4694 68.8433 96.3348 68.8433H126.099C126.171 68.8537 126.244 68.8709 126.316 68.8709C126.387 68.8709 126.456 68.8529 126.526 68.8433H138.009C138.124 69.9185 138.326 70.9761 138.605 72.0109H96.3348C95.4694 72.0109 94.7678 72.7117 94.7678 73.5778V74.1317V87.44H80.5254V18.6186ZM61.173 87.44H53.9608C53.9552 87.3939 53.9578 87.3467 53.9518 87.3007C53.8103 86.2127 54.4843 85.1875 55.5555 84.8616C56.236 84.6542 56.8922 84.4043 57.5365 84.1351C58.2656 84.5878 59.6459 85.6125 61.173 87.44ZM48.3306 119.753C47.4171 127.617 41.0659 134.047 33.2282 135.04C28.3086 135.666 23.5229 134.283 19.6713 131.089C19.4303 130.915 -4.29175 113.192 7.45796 78.4714C17.8794 53.4602 33.1976 47.3026 45.753 47.3026C47.4783 47.3026 49.1523 47.4189 50.7529 47.6178C50.8417 47.6423 50.9327 47.6576 51.0253 47.6652C60.0099 48.4273 67.0481 56.0875 67.0481 65.1081C67.0481 72.8693 62.0627 79.6038 54.6419 81.8639C52.101 82.6382 50.5043 85.0942 50.844 87.7047C50.9404 88.4468 50.9893 89.2012 50.9893 89.948C50.9893 94.3718 49.3275 98.5967 46.31 101.844C44.665 103.613 44.4209 106.266 45.7155 108.294C47.8991 111.715 48.8034 115.678 48.3306 119.753ZM68.247 112.719V163.237C68.247 164.5 67.2187 165.528 65.9555 165.528C64.6916 165.528 63.6633 164.5 63.6633 163.237V122.154C63.6633 113.57 56.785 106.575 48.2514 106.356C47.8913 105.577 48.0072 104.621 48.6053 103.977C48.8563 103.707 49.0808 103.418 49.3158 103.137H67.53C67.9963 106.098 68.247 109.303 68.247 112.719ZM87.647 177.866C83.7205 177.866 80.5254 174.671 80.5254 170.745V101.57C80.5254 100.704 79.8238 100.003 78.9585 100.003H51.478C52.0412 98.9993 52.5193 97.9555 52.9055 96.8752H78.9585H94.7678V170.745C94.7678 174.671 91.5735 177.866 87.647 177.866ZM113.71 78.2725C112.845 78.2725 112.143 78.9733 112.143 79.8394V170.745C112.143 174.671 108.949 177.866 105.023 177.866C101.096 177.866 97.9017 174.671 97.9017 170.745V95.3083V95.2792H97.8959C97.8794 94.4275 97.1898 93.7414 96.3348 93.7414H78.9585H53.7701C53.964 92.7031 54.0615 91.6432 54.0938 90.5738H96.3348C97.2001 90.5738 97.9017 89.873 97.9017 89.0069V88.7881V75.1447H139.74C140.234 76.2335 140.824 77.2783 141.506 78.2725H113.71ZM141.206 84.5647C134.475 84.5647 129 90.0398 129 96.7697V163.237C129 164.5 127.972 165.528 126.709 165.528C125.445 165.528 124.417 164.5 124.417 163.237V84.1332C124.417 83.2015 124.446 82.2957 124.489 81.4064H143.825C144.05 82.0272 144.01 82.7348 143.648 83.3023C143.384 83.7153 143.147 84.139 142.915 84.5647H141.206ZM172.252 107.847C168.48 110.978 163.693 112.362 158.776 111.735C150.938 110.742 144.587 104.312 143.673 96.4483C143.321 93.4089 143.736 90.4323 144.876 87.6955H144.917C146.126 87.6205 148.151 87.7185 148.801 88.0872C149.555 88.5172 150.51 88.2525 150.938 87.5012C151.366 86.7483 151.103 85.7919 150.351 85.3635C149.318 84.7749 147.742 84.5938 146.521 84.549C147.524 82.5877 147.223 80.1842 145.694 78.5387C142.677 75.2901 141.015 71.0667 141.015 66.6429C141.015 65.89 141.064 65.1356 141.161 64.3996C141.34 63.0189 140.967 61.6897 140.209 60.6212C141.708 59.7712 143.108 58.1856 143.19 55.4555C143.216 54.5894 142.536 53.8672 141.671 53.8412C140.812 53.8351 140.083 54.4946 140.057 55.3607C139.982 57.8427 137.96 58.2528 137.426 58.317C137.289 58.3174 137.058 58.3216 136.752 58.3443C129.674 55.9078 124.957 49.3469 124.957 41.803C124.957 32.7824 131.994 25.1222 140.979 24.3602C141.07 24.3525 141.158 24.3372 141.246 24.3143C154.494 22.657 172.691 26.7152 184.508 55.0653C196.267 89.8011 173.313 107.068 172.252 107.847Z" fill="white" stroke="#005A9C" stroke-width="1.3"/>
</svg>
