<svg width="208" height="182" viewBox="0 0 208 182" fill="none" xmlns="http://www.w3.org/2000/svg">
<path d="M95.9646 109.252L94.9957 110.717L94.0225 112.179C94.2857 112.354 98.5165 115.105 104.247 115.105C107.195 115.105 110.541 114.377 113.947 112.196L112.052 109.238C103.989 114.404 96.2888 109.464 95.9646 109.252Z" fill="white" stroke="#005A9C" stroke-width="1.3"/>
<path d="M98.1729 124.465L96.2324 127.393C96.4382 127.529 99.7326 129.673 104.196 129.673C106.489 129.673 109.092 129.106 111.741 127.41L109.846 124.451C104.007 128.192 98.407 124.619 98.1729 124.465Z" fill="white" stroke="#005A9C" stroke-width="1.3"/>
<path d="M100.947 139.758L99.0107 142.689C99.1428 142.776 101.261 144.154 104.126 144.154C105.596 144.154 107.264 143.792 108.959 142.705L107.064 139.749C104.025 141.693 101.071 139.839 100.947 139.758Z" fill="white" stroke="#005A9C" stroke-width="1.3"/>
<path d="M207.158 33.7986C207.159 15.5507 192.907 1.14521 174.708 1.00202C163.096 0.888828 151.746 5.54833 143.526 13.7278C140.183 17.0522 135.803 18.8829 131.19 18.8829H129.861C125.008 9.46034 115.729 3.33927 105.413 2.8533C93.7759 2.29873 83.1113 8.57275 77.897 18.8829H76.8108C72.1522 18.8829 67.6196 16.9664 64.3749 13.624C56.4724 5.48402 46.3714 1.0003 35.9351 1.0003H32.994C16.5168 1.0003 2.79894 13.143 1.08571 29.2454C-0.168773 41.0297 3.47548 52.6407 11.0838 61.1022C14.9621 65.4153 19.5863 68.5437 24.6027 70.395C25.8168 79.2807 33.4824 86.0864 42.5736 86.0864H52.0213C57.2032 86.0864 61.8729 83.8926 65.1841 80.3986L65.1998 80.4142L82.7236 62.8904L85.5082 68.4628C85.7551 68.9575 85.7534 69.5475 85.5039 70.0414C82.8834 75.2171 82.543 81.3034 84.5709 86.7389L86.3896 91.6154C86.6778 92.3879 87.0552 93.1071 87.4732 93.7972C83.225 100.207 80.961 107.616 80.961 115.34V115.556C80.961 117.867 81.1685 120.193 81.5775 122.468L91.8406 179.554C91.9915 180.391 92.7195 181 93.5692 181H114.432C115.281 181 116.009 180.391 116.16 179.554L126.423 122.469C126.832 120.193 127.04 117.867 127.04 115.556V115.34C127.04 107.616 124.776 100.207 120.528 93.7972C120.946 93.1071 121.323 92.3879 121.611 91.6154L123.43 86.7389C125.458 81.3034 125.117 75.2171 122.498 70.0422C122.247 69.5475 122.246 68.9575 122.493 68.4628L125.274 62.8967L142.792 80.4142L142.797 80.4084C146.108 83.8967 150.774 86.0864 155.951 86.0864H165.399C174.425 86.0864 182.121 79.2882 183.361 70.4471C197.155 65.4172 207.156 50.894 207.158 33.7986ZM105.248 6.36208C113.707 6.76058 121.379 11.4943 125.842 18.8829H81.9C86.7413 10.7589 95.6113 5.90226 105.248 6.36208ZM52.0213 82.5742H42.5736C35.8065 82.5742 30.0145 77.9009 28.3904 71.5485C30.6375 72.0649 32.942 72.3394 35.2817 72.3394H44.4875C45.2395 72.3394 45.9075 71.8609 46.1502 71.1492C46.392 70.4375 46.1545 69.6504 45.5585 69.1916L41.1794 65.8218L45.5585 62.4519C45.9838 62.1252 46.2359 61.621 46.2436 61.0851C46.2513 60.5492 46.013 60.0381 45.5971 59.6994L41.4281 56.2987L45.1219 53.2855H52.0213C60.0961 53.2855 66.6652 59.8546 66.6652 67.9294C66.6652 76.0043 60.0961 82.5742 52.0213 82.5742ZM77.9173 51.9793L68.8232 61.0733C66.1115 54.4531 59.6062 49.7733 52.0213 49.7733H42.5736L35.394 49.7485C30.8597 49.7485 26.5243 47.8089 23.4992 44.4261C20.4329 40.9971 19.0283 36.5657 19.5445 31.9482C20.432 24.02 27.6631 17.8428 36.0303 17.8428C36.0654 17.8428 36.1006 17.8428 36.1349 17.8428C41.2351 17.8745 46.1862 19.7078 50.0774 23.0039C56.0951 28.1041 63.5406 30.9124 71.0434 30.9124H74.7911C74.7755 31.3057 74.7331 31.6941 74.7331 32.088V32.8657C74.7331 39.3495 75.8362 45.8329 77.9173 51.9793ZM69.9423 70.7052C70.0825 69.7978 70.1774 68.8755 70.1774 67.9294C70.1774 66.9131 70.0727 65.923 69.9114 64.9516L79.2682 55.5948C79.8063 56.8987 80.3746 58.1896 81.0047 59.4508L81.0687 59.5788L69.9423 70.7052ZM88.6499 66.8936L84.1465 57.8816C80.2861 50.154 78.2454 41.5039 78.2454 32.8657V32.088C78.2454 31.6936 78.2857 31.3055 78.3033 30.9124H86.2679C88.1097 30.9124 89.8418 31.8933 90.7876 33.4728C93.6438 38.2395 95.3734 43.6887 95.7901 49.2305L97.5376 72.4955C95.5431 77.3925 95.6075 82.9446 97.7288 87.7996L98.8856 90.4449L99.3449 96.5593C99.1499 96.6229 98.9508 96.6796 98.7441 96.6796C94.7268 96.6796 91.0843 94.1509 89.6806 90.3875L87.8619 85.511C86.1753 80.9913 86.4582 75.9314 88.6379 71.6269C89.3865 70.146 89.3908 68.3762 88.6499 66.8936ZM112.994 99.6284C115.394 104.504 116.672 109.902 116.672 115.34V115.556C116.672 117.662 116.483 119.779 116.111 121.847L106.107 177.488H101.893L91.8895 121.847C91.5173 119.775 91.3287 117.658 91.3287 115.556V115.34C91.3287 109.914 92.6032 104.495 95.0012 99.6271C96.2002 99.9858 97.4555 100.192 98.7441 100.192C100.184 100.192 101.594 99.6079 102.614 98.5892L102.76 98.4443C103.422 97.7806 104.578 97.7806 105.242 98.4443L105.388 98.5901C105.46 98.6623 105.548 98.7152 105.624 98.783C105.709 98.8643 105.795 98.9411 105.893 99.0028C106.851 99.7515 108.036 100.192 109.257 100.192C110.543 100.192 111.797 99.9861 112.994 99.6284ZM85.0348 121.846C84.6618 119.776 84.4732 117.659 84.4732 115.556V115.34C84.4732 108.682 86.3122 102.276 89.7906 96.6599C90.4095 97.2319 91.0932 97.7224 91.8078 98.1671C89.2027 103.492 87.8165 109.412 87.8165 115.34V115.556C87.8165 117.865 88.024 120.191 88.4321 122.468L98.3246 177.488H95.0381L85.0348 121.846ZM123.528 115.556C123.528 117.659 123.339 119.776 122.966 121.847L112.963 177.488H109.676L119.569 122.469C119.977 120.196 120.184 117.87 120.184 115.556V115.34C120.184 109.399 118.797 103.502 116.189 98.1695C116.905 97.7241 117.59 97.2329 118.21 96.6598C121.689 102.276 123.528 108.682 123.528 115.34V115.556ZM119.351 66.8936C118.61 68.3762 118.614 70.146 119.364 71.6277C121.543 75.9314 121.826 80.9913 120.139 85.511L118.32 90.3875C116.917 94.1509 113.274 96.6796 109.257 96.6796C109.05 96.6796 108.852 96.623 108.657 96.5596L109.123 90.4286L110.274 87.7954C112.398 82.9386 112.462 77.3822 110.465 72.4818L112.214 49.1842C112.629 43.6707 114.344 38.2472 117.182 33.4831C118.127 31.8976 119.862 30.9124 121.708 30.9124H129.678C129.725 31.5637 129.756 32.2163 129.756 32.8657C129.755 41.5047 127.715 50.1549 123.854 57.8816L119.351 66.8936ZM155.951 49.7733C148.371 49.7733 141.869 54.4465 139.154 61.0596L130.081 51.9864C132.164 45.8381 133.268 39.3525 133.268 32.8657C133.268 32.2167 133.245 31.564 133.203 30.9124H136.957C144.591 30.9124 151.973 28.159 157.742 23.1608C161.449 19.9479 166.189 18.0657 171.091 17.8616C179.867 17.5101 187.848 24.1915 188.507 32.4858C188.866 37.0021 187.382 41.3109 184.328 44.6165C181.316 47.8783 177.043 49.7485 172.601 49.7485L165.399 49.7743L155.951 49.7733ZM126.929 59.5852L126.996 59.4508C127.625 58.1918 128.193 56.9031 128.73 55.6016L138.064 64.9353C137.9 65.9117 137.795 66.9074 137.795 67.9294C137.795 68.8677 137.889 69.7825 138.027 70.6829L126.929 59.5852ZM165.399 82.5742H155.951C147.876 82.5742 141.307 76.0043 141.307 67.9294C141.307 59.8546 147.876 53.2855 155.951 53.2855H162.879L166.573 56.2987L162.404 59.6994C161.988 60.0381 161.749 60.5492 161.757 61.0851C161.765 61.6219 162.017 62.1252 162.442 62.4519L166.822 65.8218L162.442 69.1916C161.846 69.6504 161.609 70.4367 161.851 71.1492C162.093 71.8609 162.761 72.3394 163.513 72.3394H172.719C175.065 72.3394 177.355 72.0736 179.57 71.5711C177.931 77.9 172.122 82.5742 165.399 82.5742ZM172.719 68.8272H168.675L170.773 67.2134C171.205 66.8807 171.458 66.3671 171.458 65.8218C171.458 65.2764 171.205 64.7628 170.773 64.4301L166.341 61.0199L170.46 57.6595C170.87 57.3259 171.107 56.826 171.107 56.2987C171.107 55.7713 170.87 55.2714 170.46 54.9379L168.423 53.2752L172.607 53.2607C178.02 53.2607 183.233 50.9789 186.908 47.0003C190.634 42.9658 192.446 37.7121 192.009 32.208C191.204 22.0855 181.577 13.8984 170.944 14.3529C165.253 14.5895 159.747 16.7752 155.442 20.5061C150.311 24.9521 143.746 27.4002 136.957 27.4002H121.708C118.631 27.4002 115.74 29.0422 114.156 31.7012C111.05 36.9138 109.168 42.8681 108.712 48.921L106.931 72.6412C106.91 72.9251 106.965 73.226 107.078 73.4867C108.855 77.5897 108.847 82.2912 107.056 86.3882L105.785 89.2951C105.706 89.476 105.658 89.6681 105.643 89.8653L105.286 94.5737C104.894 94.4759 104.466 94.4176 104 94.4176C103.537 94.4176 103.109 94.4759 102.718 94.5737L102.365 89.8842C102.351 89.6869 102.303 89.4932 102.224 89.3122L100.948 86.3934C99.1565 82.293 99.1505 77.5889 100.932 73.485C101.045 73.2243 101.093 72.9388 101.071 72.655L99.292 48.9682C98.835 42.8835 96.9357 36.9009 93.8008 31.6669C92.2239 29.0354 89.3368 27.4002 86.2679 27.4002H71.0434C64.3715 27.4002 57.732 24.8878 52.348 20.3243C47.8291 16.4965 42.0789 14.3674 36.1572 14.3306C36.1143 14.3306 36.0732 14.3306 36.0311 14.3306C25.9001 14.3306 17.1384 21.8755 16.0546 31.5572C15.4347 37.1007 17.1942 42.6443 20.8813 46.7679C24.5719 50.894 29.8616 53.2607 35.388 53.2607L39.5776 53.2752L37.5403 54.9379C37.1313 55.2714 36.8938 55.7713 36.8938 56.2987C36.8938 56.826 37.1313 57.3259 37.5403 57.6595L41.6604 61.0199L37.229 64.4301C36.7969 64.7628 36.5439 65.2764 36.5439 65.8218C36.5439 66.3671 36.7969 66.8807 37.229 67.2134L39.3264 68.8272H35.2817C27.2026 68.8272 19.5368 65.2498 13.6957 58.7536C6.75189 51.0321 3.42918 40.4123 4.5782 29.6176C6.10107 15.3055 18.3175 4.51251 32.994 4.51251H35.9351C45.4136 4.51251 54.6194 8.61723 61.8556 16.0712C65.7571 20.0902 71.2081 22.3951 76.8108 22.3951H131.19C136.738 22.3951 141.998 20.2017 146.002 16.2179C153.563 8.69526 163.93 4.44562 174.681 4.51422C190.924 4.64198 203.647 17.5049 203.646 33.7986C203.644 53.1132 189.77 68.8272 172.719 68.8272Z" fill="white" stroke="#005A9C" stroke-width="1.3"/>
</svg>
